<?xml version="1.0" standalone="no"?>
<!DOCTYPE svg PUBLIC "-//W3C//DTD SVG 20010904//EN"
 "http://www.w3.org/TR/2001/REC-SVG-20010904/DTD/svg10.dtd">
<svg version="1.0" xmlns="http://www.w3.org/2000/svg"
 width="2000.000000pt" height="2000.000000pt" viewBox="0 0 2000.000000 2000.000000"
 preserveAspectRatio="xMidYMid meet">
<metadata>
Created by potrace 1.11, written by Peter Selinger 2001-2013
</metadata>
<g transform="translate(0.000000,2000.000000) scale(0.100000,-0.100000)"
fill="#000000" stroke="none">
<path d="M6340 17228 c0 -661 2 -1199 4 -1197 2 2 6 49 10 104 3 55 8 111 10
125 2 14 7 46 10 71 47 343 167 689 329 949 119 190 300 394 467 525 47 37 93
73 103 81 51 41 288 175 397 225 255 115 623 222 875 254 28 3 59 8 70 10 24
5 72 12 145 20 109 12 137 14 260 21 69 3 127 8 129 10 2 2 -629 4 -1402 4
l-1407 0 0 -1202z"/>
<path d="M10851 18426 c2 -2 60 -7 129 -10 69 -4 141 -9 160 -11 19 -2 62 -6
95 -9 33 -3 69 -8 80 -10 11 -2 45 -7 75 -11 30 -4 64 -9 75 -11 11 -2 45 -8
75 -14 30 -6 68 -13 84 -16 28 -5 120 -25 196 -43 179 -43 450 -145 615 -231
235 -123 383 -229 556 -400 143 -141 265 -300 348 -454 17 -30 35 -63 41 -73
40 -70 145 -337 166 -421 2 -9 13 -53 24 -97 11 -44 22 -91 25 -105 2 -14 7
-36 10 -50 9 -49 15 -86 21 -130 3 -25 7 -56 9 -69 2 -13 7 -67 11 -120 4 -53
8 -98 10 -100 2 -2 4 534 4 1192 l0 1197 -1407 0 c-773 0 -1404 -2 -1402 -4z"/>
<path d="M9669 17826 c-2 -2 -51 -7 -109 -11 -195 -14 -241 -19 -440 -52 -194
-31 -433 -91 -603 -150 -114 -39 -161 -59 -317 -131 -98 -45 -393 -229 -420
-261 -3 -3 -31 -28 -62 -54 -337 -283 -574 -678 -691 -1152 -14 -55 -28 -116
-31 -135 -3 -19 -8 -44 -10 -55 -2 -11 -7 -42 -10 -68 -4 -27 -9 -57 -11 -66
-27 -143 -27 -708 0 -911 68 -498 184 -882 401 -1325 35 -71 78 -157 97 -190
18 -33 46 -82 60 -108 15 -26 34 -60 44 -75 9 -15 24 -40 35 -57 111 -184 362
-541 523 -746 36 -46 78 -99 93 -118 27 -35 344 -428 467 -581 17 -20 41 -52
55 -70 14 -18 38 -49 54 -69 34 -43 135 -177 156 -208 184 -266 259 -389 335
-548 88 -184 143 -362 162 -520 10 -76 9 -275 0 -340 -6 -46 -9 -62 -21 -121
-6 -32 -46 -166 -55 -189 -5 -11 -21 -51 -37 -90 -105 -266 -319 -594 -678
-1040 -448 -557 -544 -679 -660 -836 -155 -208 -178 -241 -269 -379 -258 -389
-471 -815 -587 -1173 -66 -203 -128 -452 -145 -581 -3 -27 -8 -53 -10 -56 -5
-8 -19 -130 -32 -275 -10 -107 -10 -561 0 -655 4 -41 8 -82 9 -90 1 -15 34
-218 44 -274 3 -15 21 -85 40 -155 133 -483 405 -889 784 -1167 324 -237 692
-391 1162 -485 57 -11 114 -22 128 -24 14 -1 41 -6 60 -9 47 -8 92 -13 165
-21 33 -4 67 -8 75 -10 42 -11 298 -20 575 -20 405 0 560 11 885 60 102 16
337 68 425 95 227 70 347 115 498 191 524 260 880 648 1080 1176 44 115 107
335 123 433 4 25 8 47 9 50 1 3 5 32 9 65 4 32 10 68 12 80 12 54 19 214 19
445 0 282 -9 405 -42 595 -8 50 -17 104 -20 120 -27 172 -106 450 -192 679
-153 405 -421 882 -725 1289 -36 48 -66 92 -66 97 0 4 -4 10 -8 12 -4 2 -30
32 -57 68 -46 60 -330 420 -368 465 -9 11 -51 63 -93 115 -42 52 -89 111 -105
130 -242 297 -461 603 -582 815 -126 220 -221 480 -244 672 -10 74 -10 271 0
346 39 324 224 699 575 1166 80 106 395 505 412 521 3 3 32 39 65 80 33 41 67
84 77 95 293 357 574 750 758 1065 50 85 95 162 100 170 20 33 160 320 188
385 39 91 108 271 137 360 61 189 135 494 149 620 4 28 8 64 11 80 23 143 30
274 30 535 0 249 -6 348 -29 505 -91 607 -344 1074 -781 1445 -95 80 -328 228
-445 282 -19 9 -64 30 -100 46 -169 78 -430 160 -660 206 -69 14 -88 18 -160
30 -22 4 -115 17 -215 31 -16 2 -64 7 -105 10 -41 4 -91 9 -110 12 -41 6 -775
14 -781 9z"/>
<path d="M5440 10010 c0 -2774 2 -5041 4 -5039 2 2 7 46 10 96 4 51 9 103 11
115 2 13 6 49 10 82 4 32 8 68 10 80 2 11 6 37 9 56 3 19 10 60 16 90 6 30 13
66 16 80 31 168 171 608 244 765 96 209 213 435 303 585 88 148 336 517 399
595 5 6 73 93 151 195 79 102 250 317 381 479 566 700 763 1006 881 1366 18
55 38 125 44 155 6 30 14 66 17 80 13 55 13 336 -1 415 -31 188 -89 354 -193
555 -60 115 -161 283 -174 288 -4 2 -8 8 -8 12 0 11 -97 151 -198 285 -74 99
-501 635 -513 645 -3 3 -58 71 -122 152 -291 367 -535 716 -693 990 -86 148
-137 240 -139 248 -1 3 -29 61 -62 130 -172 357 -316 821 -357 1150 -4 25 -8
59 -11 75 -8 46 -13 101 -21 210 -3 55 -8 102 -10 104 -2 2 -4 -2265 -4 -5039z"/>
<path d="M14549 14993 c-1 -32 -3 -67 -4 -78 -1 -11 -5 -54 -10 -95 -4 -41 -9
-84 -11 -95 -2 -11 -6 -42 -9 -70 -16 -123 -79 -397 -129 -560 -79 -257 -152
-436 -292 -710 -228 -448 -484 -817 -1079 -1550 -27 -34 -63 -79 -80 -100 -16
-21 -43 -55 -60 -75 -467 -571 -702 -964 -794 -1328 -30 -114 -36 -171 -36
-327 0 -168 7 -230 40 -353 66 -248 192 -500 399 -797 61 -89 272 -372 286
-385 3 -3 68 -84 145 -180 77 -96 144 -180 150 -186 5 -6 24 -27 40 -48 206
-258 293 -368 331 -420 25 -33 51 -68 57 -76 7 -8 54 -73 105 -143 459 -636
738 -1222 871 -1827 25 -114 47 -243 56 -325 4 -33 8 -71 11 -85 2 -14 7 -72
10 -130 4 -58 8 -107 10 -109 2 -2 4 2271 4 5052 0 2782 -2 5057 -5 5057 -3 0
-6 -26 -6 -57z"/>
<path d="M6340 2772 l0 -1202 1407 0 c773 0 1404 2 1402 4 -2 2 -63 7 -135 10
-73 4 -140 8 -150 10 -11 2 -55 7 -99 10 -44 4 -87 9 -95 11 -8 2 -35 7 -60
10 -25 3 -83 13 -130 21 -47 9 -96 18 -110 20 -14 3 -70 16 -125 29 -701 166
-1223 513 -1543 1027 -93 149 -188 372 -255 593 -17 57 -62 276 -72 350 -4 28
-9 61 -11 75 -2 14 -7 70 -10 125 -4 55 -8 102 -10 104 -2 2 -4 -536 -4 -1197z"/>
<path d="M13649 3908 c-1 -29 -3 -62 -4 -73 -1 -11 -5 -49 -9 -85 -33 -309
-126 -627 -258 -885 -31 -61 -129 -225 -148 -248 -5 -6 -37 -48 -71 -92 -256
-332 -660 -601 -1132 -754 -122 -40 -327 -93 -401 -105 -20 -3 -55 -10 -78
-15 -43 -9 -83 -16 -155 -26 -21 -3 -51 -7 -68 -10 -16 -2 -61 -7 -100 -10
-38 -4 -81 -8 -95 -11 -14 -2 -86 -7 -160 -10 -74 -4 -137 -8 -139 -10 -2 -2
633 -4 1412 -4 l1417 0 0 1195 c0 657 -2 1195 -5 1195 -3 0 -6 -24 -6 -52z"/>
</g>
</svg>
